<?xml version="1.0" encoding="UTF-8" standalone="no"?>
<svg
   id="Layer_1"
   data-name="Layer 1"
   viewBox="0 0 32 32"
   version="1.1"
   sodipodi:docname="angular.svg"
   inkscape:version="1.1 (1:1.1+202105261517+ce6663b3b7)"
   xmlns:inkscape="http://www.inkscape.org/namespaces/inkscape"
   xmlns:sodipodi="http://sodipodi.sourceforge.net/DTD/sodipodi-0.dtd"
   xmlns="http://www.w3.org/2000/svg"
   xmlns:svg="http://www.w3.org/2000/svg">
  <defs
     id="defs7" />
  <sodipodi:namedview
     id="namedview5"
     pagecolor="#ffffff"
     bordercolor="#666666"
     borderopacity="1.0"
     inkscape:pageshadow="2"
     inkscape:pageopacity="0.0"
     inkscape:pagecheckerboard="0"
     showgrid="false"
     inkscape:zoom="14.672466"
     inkscape:cx="7.6674229"
     inkscape:cy="12.847193"
     inkscape:window-width="1528"
     inkscape:window-height="836"
     inkscape:window-x="72"
     inkscape:window-y="27"
     inkscape:window-maximized="1"
     inkscape:current-layer="Layer_1" />
  <path
     d="M16,0a.62.62,0,0,0-.23,0L1.16,5.11a.68.68,0,0,0-.46.74L3,24.72a.68.68,0,0,0,.36.52l12.28,6.68A.73.73,0,0,0,16,32a.66.66,0,0,0,.33-.09l12.34-6.76a.7.7,0,0,0,.36-.53L31.3,5.76A.71.71,0,0,0,30.83,5L16.18,0A.62.62,0,0,0,16,0ZM16,3.48,25,23H22L20,18.79H12L10,23H7Zm0,6.61L13.27,16h5.46Z"
     id="path2"
     style="stroke:none;stroke-opacity:1;fill:#6600ff;fill-opacity:1" />
</svg>
