<?xml version="1.0" encoding="UTF-8"?>
<svg data-name="Layer 1" version="1.1" viewBox="0 0 32 32" xmlns="http://www.w3.org/2000/svg">
<path d="M18.66.06c1.69,4.07-6.07,6.56-6.79,9.94-.66,3.11,4.6,6.76,4.6,6.76a25.93,25.93,0,0,1-2.19-4.37C12.93,9,22.55,5.94,18.66.06ZM23.77,5.7s-6.76.44-7.1,5c-.16,2,1.78,3.06,1.84,4.53a3.24,3.24,0,0,1-1.19,2.19,4.06,4.06,0,0,0,2.88-2.23c.75-2-1.46-3.41-1.23-5S23.77,5.7,23.77,5.7Zm1.65,10.41a3.55,3.55,0,0,0-2.23.77,2,2,0,0,1,2.61,1.61c0,2.31-3.22,4.49-3.22,4.49s5-.57,5-4.38A2.27,2.27,0,0,0,25.42,16.11Zm-13.29,0c-1.74.06-5.22.35-5.22,1.73,0,1.91,8.13,2.05,13.94.88,0,0,1.55-1.12,2-1.54-3.81.81-12.48.93-12.48.23s2.8-1.3,2.8-1.3S12.72,16.13,12.13,16.15Zm-.49,3.53c-1,0-2.38.76-2.38,1.5,0,1.48,7.17,2.63,12.47.46l-1.84-1.15C16.29,21.69,9.67,21.29,11.64,19.68ZM12.52,23c-1.31,0-2.15.84-2.15,1.46,0,1.9,7.77,2.09,10.86.15l-1.95-1.3C17,24.34,11.18,24.49,12.52,23ZM8.14,24.75c-2.12-.05-3.49.94-3.49,1.76,0,4.4,21.81,4.18,21.81-.3,0-.75-.85-1.1-1.16-1.27,1.78,4.29-17.81,3.95-17.81,1.42,0-.58,1.43-1.15,2.76-.88L9.1,24.82A6.48,6.48,0,0,0,8.14,24.75ZM28.72,27.7C25.41,31,17,32.14,8.56,30.12,17,33.72,28.68,31.72,28.72,27.7Z" fill="#60f"/>
</svg>
