<?xml version="1.0" encoding="UTF-8"?>
<svg data-name="Layer 1" version="1.1" viewBox="0 0 32 32" xmlns="http://www.w3.org/2000/svg">
<path d="M16-.11A2.63,2.63,0,0,0,14.7.22L2.46,7.29A2.58,2.58,0,0,0,1.18,9.52V22.34a2.59,2.59,0,0,0,1.28,2.24l3.22,1.85a5.15,5.15,0,0,0,2.81.76c2.31,0,3.63-1.39,3.63-3.81V10.15a.36.36,0,0,0-.36-.36H10.22a.36.36,0,0,0-.36.36V23.37c0,1.08-1.12,2.15-2.94,1.24L3.56,22.67a.36.36,0,0,1-.19-.33V9.54a.39.39,0,0,1,.19-.35L15.8,2.13a.35.35,0,0,1,.39,0L28.43,9.19a.39.39,0,0,1,.19.33V22.34a.37.37,0,0,1-.18.33L16.19,29.75a.44.44,0,0,1-.39,0l-3.15-1.86a.28.28,0,0,0-.29,0,8,8,0,0,1-1.85.84c-.2.06-.51.19.11.53l4.08,2.43A2.67,2.67,0,0,0,16,32a2.64,2.64,0,0,0,1.29-.34l12.26-7.08a2.59,2.59,0,0,0,1.28-2.24V9.54A2.59,2.59,0,0,0,29.54,7.3L17.28.22A2.63,2.63,0,0,0,16-.11Zm3.3,9.89c-3.5,0-5.59,1.48-5.59,4,0,2.68,2.08,3.42,5.44,3.75,4,.4,4.32,1,4.32,1.78,0,1.36-1.1,1.94-3.68,1.94-3.25,0-4-.82-4.2-2.42a.34.34,0,0,0-.34-.3h-1.6a.34.34,0,0,0-.34.35c0,2.06,1.12,4.52,6.48,4.52,3.88,0,6.1-1.53,6.1-4.2s-1.79-3.35-5.55-3.85-4.19-.76-4.19-1.65.33-1.71,3.15-1.71c2.5,0,3.44.54,3.82,2.23a.37.37,0,0,0,.35.29h1.59a.35.35,0,0,0,.26-.13.34.34,0,0,0,.09-.27C25.15,11.15,23.21,9.78,19.29,9.78Z" fill="#60f"/>
</svg>
