<?xml version="1.0" encoding="UTF-8" standalone="no"?>
<svg
   id="Layer_1"
   data-name="Layer 1"
   viewBox="0 0 32 32"
   version="1.1"
   sodipodi:docname="python.svg"
   inkscape:version="1.1 (1:1.1+202105261517+ce6663b3b7)"
   xmlns:inkscape="http://www.inkscape.org/namespaces/inkscape"
   xmlns:sodipodi="http://sodipodi.sourceforge.net/DTD/sodipodi-0.dtd"
   xmlns="http://www.w3.org/2000/svg"
   xmlns:svg="http://www.w3.org/2000/svg">
  <defs
     id="defs1087" />
  <sodipodi:namedview
     id="namedview1085"
     pagecolor="#ffffff"
     bordercolor="#666666"
     borderopacity="1.0"
     inkscape:pageshadow="2"
     inkscape:pageopacity="0.0"
     inkscape:pagecheckerboard="0"
     showgrid="false"
     inkscape:zoom="20.75"
     inkscape:cx="5.0843373"
     inkscape:cy="15.975904"
     inkscape:window-width="1528"
     inkscape:window-height="836"
     inkscape:window-x="72"
     inkscape:window-y="27"
     inkscape:window-maximized="1"
     inkscape:current-layer="Layer_1" />
  <path
     d="M15.65,0C9.6,0,8.35,3.13,8.35,4.93V8.35h7V9H4.93C2.64,9,0,10.85,0,16s2.64,7,4.93,7H9V18.78A2.8,2.8,0,0,1,11.83,16h8.34a2,2,0,0,0,2.09-2.09v-9C22.26,2.5,20,0,15.65,0ZM12.52,3.48a1.39,1.39,0,1,1-1.39,1.39A1.39,1.39,0,0,1,12.52,3.48ZM23,9v4.87a2.8,2.8,0,0,1-2.79,2.79H11.83a2,2,0,0,0-2.09,2.08v8.29C9.74,29.5,12,32,16.35,32c6,0,7.3-3.12,7.3-4.93V23.65H16.7V23H27.07C29.36,23,32,21.15,32,16s-2.64-7-4.93-7Zm-3.48,16.7a1.39,1.39,0,1,1-1.39,1.39A1.39,1.39,0,0,1,19.48,25.74Z"
     id="path1082"
     style="fill:#6600ff;fill-opacity:1" />
</svg>
