<?xml version="1.0" encoding="UTF-8" standalone="no"?>
<svg
   id="Layer_1"
   data-name="Layer 1"
   viewBox="0 0 32 32"
   version="1.1"
   sodipodi:docname="reactjs.svg"
   inkscape:version="1.1 (1:1.1+202105261517+ce6663b3b7)"
   xmlns:inkscape="http://www.inkscape.org/namespaces/inkscape"
   xmlns:sodipodi="http://sodipodi.sourceforge.net/DTD/sodipodi-0.dtd"
   xmlns="http://www.w3.org/2000/svg"
   xmlns:svg="http://www.w3.org/2000/svg">
  <defs
     id="defs1151" />
  <sodipodi:namedview
     id="namedview1149"
     pagecolor="#ffffff"
     bordercolor="#666666"
     borderopacity="1.0"
     inkscape:pageshadow="2"
     inkscape:pageopacity="0.0"
     inkscape:pagecheckerboard="0"
     showgrid="false"
     inkscape:zoom="20.75"
     inkscape:cx="15.349398"
     inkscape:cy="15.975904"
     inkscape:window-width="1528"
     inkscape:window-height="836"
     inkscape:window-x="72"
     inkscape:window-y="27"
     inkscape:window-maximized="1"
     inkscape:current-layer="Layer_1" />
  <path
     d="M9.89,2.16A3.58,3.58,0,0,0,8,2.61,4.05,4.05,0,0,0,6.19,5.23a10.92,10.92,0,0,0-.12,4.08c.07.51.17,1,.29,1.58-.53.17-1,.35-1.51.54a11.06,11.06,0,0,0-3.48,2.14A4,4,0,0,0,0,16.44a4,4,0,0,0,1.37,2.87,11.06,11.06,0,0,0,3.48,2.14c.47.19,1,.37,1.51.54-.12.54-.22,1.07-.29,1.57a11,11,0,0,0,.12,4.09A4.05,4.05,0,0,0,8,30.27a4.06,4.06,0,0,0,3.17.24,10.93,10.93,0,0,0,3.6-1.94c.4-.31.81-.66,1.22-1,.41.37.82.72,1.22,1a11,11,0,0,0,3.59,1.94A4,4,0,0,0,24,30.27a4.06,4.06,0,0,0,1.8-2.62,11,11,0,0,0,.12-4.09c-.07-.5-.17-1-.29-1.57.53-.17,1-.35,1.51-.54a11,11,0,0,0,3.47-2.14,4,4,0,0,0,1.38-2.87,4,4,0,0,0-1.38-2.87,11,11,0,0,0-3.47-2.14c-.47-.19-1-.37-1.51-.54.12-.54.22-1.07.29-1.57a11,11,0,0,0-.12-4.09A4.06,4.06,0,0,0,24,2.61a4,4,0,0,0-3.17-.24,11,11,0,0,0-3.59,1.94c-.4.31-.81.66-1.22,1-.41-.37-.82-.72-1.22-1a10.93,10.93,0,0,0-3.6-1.94A5.72,5.72,0,0,0,9.89,2.16Zm0,1.06a4.35,4.35,0,0,1,1,.17A10,10,0,0,1,14.1,5.15c.36.28.73.59,1.09.92a30.51,30.51,0,0,0-3.1,3.66,30.21,30.21,0,0,0-4.71.85c-.1-.48-.19-.95-.25-1.4A10,10,0,0,1,7.22,5.5a3,3,0,0,1,1.3-2A2.53,2.53,0,0,1,9.86,3.22Zm12.21,0a2.45,2.45,0,0,1,1.35.3,3,3,0,0,1,1.3,2,10,10,0,0,1,.09,3.68c-.06.45-.15.92-.25,1.4a30.13,30.13,0,0,0-4.72-.85,30.47,30.47,0,0,0-3.09-3.66c.36-.33.73-.64,1.09-.92a10,10,0,0,1,3.23-1.76A4.23,4.23,0,0,1,22.07,3.23ZM16,6.8a29.23,29.23,0,0,1,2.46,2.81c-.81,0-1.62-.09-2.46-.09s-1.66,0-2.46.09A27.92,27.92,0,0,1,16,6.8Zm0,3.78c1.13,0,2.23.06,3.29.16.62.87,1.21,1.79,1.78,2.77a32.65,32.65,0,0,1,1.51,2.93A32.65,32.65,0,0,1,21,19.37c-.57,1-1.16,1.9-1.78,2.77-1.06.1-2.16.16-3.29.16s-2.23-.06-3.29-.16a32.88,32.88,0,0,1-1.78-2.77c-.57-1-1.07-2-1.52-2.93.45-1,.95-2,1.52-2.93a32.88,32.88,0,0,1,1.78-2.77C13.74,10.64,14.84,10.58,16,10.58Zm-4.69.31c-.45.67-.89,1.36-1.3,2.09s-.8,1.45-1.16,2.17a29.48,29.48,0,0,1-1.2-3.53A30,30,0,0,1,11.28,10.89Zm9.38,0a29.81,29.81,0,0,1,3.65.73,27.69,27.69,0,0,1-1.19,3.53c-.36-.72-.74-1.44-1.16-2.17S21.1,11.56,20.66,10.89Zm-14.06,1a29.77,29.77,0,0,0,1.62,4.51A29.77,29.77,0,0,0,6.6,21c-.47-.15-.92-.31-1.34-.49a10,10,0,0,1-3.14-1.91,3,3,0,0,1-1.06-2.11,3,3,0,0,1,1.06-2.11,10,10,0,0,1,3.14-1.91C5.68,12.24,6.13,12.08,6.6,11.93Zm18.74,0c.47.15.92.31,1.34.49a10.14,10.14,0,0,1,3.14,1.91,3,3,0,0,1,1.05,2.11,3,3,0,0,1-1.05,2.11,10.14,10.14,0,0,1-3.14,1.91c-.42.18-.87.34-1.34.49a30.9,30.9,0,0,0-1.62-4.51A30.9,30.9,0,0,0,25.34,11.93ZM16,12.71a3.73,3.73,0,1,0,3.73,3.73A3.74,3.74,0,0,0,16,12.71Zm0,1.07a2.66,2.66,0,1,1-2.66,2.66A2.65,2.65,0,0,1,16,13.78Zm7.15,4a27.69,27.69,0,0,1,1.19,3.53,29.81,29.81,0,0,1-3.65.73c.44-.67.88-1.36,1.3-2.09S22.76,18.45,23.12,17.73Zm-14.3,0c.36.72.74,1.44,1.16,2.17s.85,1.42,1.3,2.09a30,30,0,0,1-3.66-.73A29.48,29.48,0,0,1,8.82,17.73ZM7.38,22.3a30.21,30.21,0,0,0,4.71.85,30.51,30.51,0,0,0,3.1,3.66c-.36.33-.73.64-1.09.92a10,10,0,0,1-3.23,1.76,3,3,0,0,1-2.35-.14,3,3,0,0,1-1.3-2,10,10,0,0,1-.09-3.68C7.19,23.25,7.28,22.78,7.38,22.3Zm17.18,0c.1.48.19.95.25,1.4a10,10,0,0,1-.09,3.68,3,3,0,0,1-1.3,2,3,3,0,0,1-2.35.14,10,10,0,0,1-3.23-1.76c-.36-.28-.73-.59-1.09-.92a30.47,30.47,0,0,0,3.09-3.66A30.13,30.13,0,0,0,24.56,22.3Zm-11,1q1.2.09,2.46.09c.84,0,1.65,0,2.46-.09A29.23,29.23,0,0,1,16,26.08,27.92,27.92,0,0,1,13.51,23.27Z"
     id="path1146"
     style="fill:#6600ff;fill-opacity:1" />
</svg>
