<?xml version="1.0" encoding="UTF-8"?>
<svg xmlns="http://www.w3.org/2000/svg" xmlns:xlink="http://www.w3.org/1999/xlink" width="1024px" height="1024px" viewBox="0 0 1024 1024" version="1.1">
<g id="surface1">
<path style=" stroke:none;fill-rule:nonzero;fill:rgb(40%,0%,100%);fill-opacity:1;" d="M 785.441406 705.039062 C 910.480469 580.078125 931.28125 398.160156 831.839844 298.800781 C 732.398438 199.441406 550.480469 220.238281 425.441406 345.199219 C 300.398438 470.160156 336.558594 709.039062 379.039062 751.441406 C 413.359375 785.761719 660.398438 830 785.441406 705.039062 Z M 785.441406 705.039062 "/>
<path style=" stroke:none;fill-rule:nonzero;fill:rgb(40%,0%,100%);fill-opacity:1;" d="M 272.320312 524.480469 C 199.761719 452 94.160156 439.921875 36.480469 497.519531 C -21.199219 555.199219 -9.121094 660.71875 63.441406 733.199219 C 136 805.761719 274.640625 784.71875 299.28125 760.160156 C 319.199219 740.238281 344.960938 596.960938 272.320312 524.480469 Z M 272.320312 524.480469 "/>
<path style=" stroke:none;fill-rule:nonzero;fill:rgb(0.392157%,0.392157%,0.392157%);fill-opacity:1;" d="M 990.558594 685.441406 C 985.921875 685.441406 983.601562 682.640625 983.601562 676.960938 C 983.601562 672.71875 986.398438 663.441406 991.921875 649.28125 C 1000 628.558594 1004.078125 613.679688 1004.078125 604.640625 C 1004.078125 599.199219 1002.480469 594.640625 999.28125 591.039062 C 996.078125 587.441406 992.078125 585.601562 987.28125 585.601562 C 980.238281 585.601562 972.160156 588.878906 963.039062 595.519531 C 953.921875 602.160156 941.679688 614.078125 926.238281 631.359375 C 928.480469 620.160156 933.28125 604.800781 940.480469 585.28125 L 906 591.921875 C 898.160156 608.878906 892.480469 624.160156 888.960938 637.761719 C 887.199219 644.398438 885.921875 651.28125 885.039062 658.238281 C 874.238281 668.71875 867.199219 675.039062 864.160156 677.359375 C 861.039062 679.679688 857.761719 680.800781 854.398438 680.800781 C 851.28125 680.800781 848.800781 679.601562 846.960938 677.28125 C 845.121094 674.960938 844.238281 671.761719 844.238281 667.839844 C 844.238281 663.601562 845.039062 658.71875 846.640625 653.199219 C 848.238281 647.679688 851.761719 637.28125 857.28125 622 L 870.398438 585.839844 L 857.519531 586.398438 C 845.839844 608.640625 832.160156 620.640625 816.480469 622.320312 C 820.71875 611.28125 822.878906 602.800781 822.878906 596.878906 C 822.878906 589.359375 819.199219 585.601562 811.839844 585.601562 C 803.121094 585.601562 796.320312 589.679688 791.441406 597.921875 C 786.480469 606.160156 784 613.921875 784 621.199219 C 784 628.480469 788.078125 633.601562 796.160156 637.199219 C 790.878906 644.960938 784.960938 652.238281 778.558594 659.121094 C 770.960938 666.640625 765.039062 672.398438 760.71875 676.160156 C 756.320312 680.078125 752.238281 682 748.558594 682 C 742.800781 682 739.921875 677.921875 739.921875 669.839844 C 739.921875 661.761719 743.121094 647.839844 749.519531 627.039062 L 762 585.601562 L 754.078125 585.601562 L 725.199219 601.601562 C 720.480469 590.800781 712.238281 585.359375 700.480469 585.359375 C 691.121094 585.359375 680.398438 589.359375 668.238281 597.28125 C 656.078125 605.199219 646.078125 615.519531 638.320312 628.398438 C 632.320312 638.320312 628.640625 648.71875 627.28125 659.441406 C 616.398438 670.320312 608.238281 677.359375 602.800781 680.640625 C 597.121094 684 591.199219 685.679688 584.960938 685.679688 C 569.039062 685.679688 559.199219 676.480469 555.441406 658.078125 C 596.960938 645.921875 617.679688 630.078125 617.679688 610.558594 C 617.679688 603.199219 615.039062 597.28125 609.761719 592.71875 C 604.480469 588.160156 597.441406 585.921875 588.71875 585.921875 C 571.839844 585.921875 556.480469 594 542.640625 610.160156 C 530.078125 624.800781 523.28125 641.039062 522.078125 658.878906 C 510.640625 670.160156 502 677.601562 496.398438 681.199219 C 490.640625 684.878906 485.199219 686.71875 480.160156 686.71875 C 475.121094 686.71875 471.121094 684.320312 468.160156 679.519531 C 465.121094 674.71875 463.601562 668.238281 463.601562 660 C 463.601562 656.320312 464 649.601562 464.71875 639.761719 C 483.601562 619.28125 497.441406 600.078125 506.320312 582.078125 C 515.199219 564.078125 519.601562 545.441406 519.601562 526.238281 C 519.601562 519.441406 518.71875 514.078125 516.960938 510.078125 C 515.199219 506.078125 512.960938 504.078125 510.238281 504.078125 C 509.679688 504.078125 508.800781 504.238281 507.679688 504.640625 L 471.761719 517.921875 C 459.519531 541.28125 449.039062 566.800781 440.480469 594.558594 C 431.921875 622.238281 427.601562 646 427.601562 665.761719 C 427.601562 678.960938 430.640625 689.441406 436.878906 697.28125 C 443.039062 705.121094 451.199219 709.039062 461.28125 709.039062 C 470.078125 709.039062 479.28125 706.238281 488.960938 700.640625 C 498.640625 695.039062 509.839844 686.320312 522.71875 674.558594 C 535.601562 662.800781 522.71875 674.398438 522.71875 674.398438 C 524.238281 683.28125 527.921875 690.71875 533.679688 696.800781 C 541.601562 704.960938 551.921875 709.121094 564.71875 709.121094 C 576.238281 709.121094 586.71875 706.320312 596.238281 700.71875 C 605.441406 695.359375 615.761719 686.960938 627.28125 675.839844 C 628.238281 684.160156 630.960938 691.359375 635.519531 697.519531 C 641.359375 705.28125 648.398438 709.199219 656.640625 709.199219 C 664.878906 709.199219 673.359375 706 681.359375 699.601562 C 689.359375 693.199219 698 683.199219 707.441406 669.761719 C 706.558594 696.078125 713.601562 709.199219 728.480469 709.199219 C 734.398438 709.199219 740.640625 707.039062 747.121094 702.71875 C 753.601562 698.398438 764.398438 689.039062 779.519531 674.71875 C 792.640625 661.761719 802.238281 649.601562 808.398438 638.238281 C 816.71875 636.800781 824.320312 634.320312 831.28125 630.71875 C 817.039062 653.039062 809.921875 670.878906 809.921875 684.160156 C 809.921875 691.359375 811.921875 697.359375 815.839844 702.160156 C 819.761719 706.960938 824.640625 709.441406 830.398438 709.441406 C 842.960938 709.441406 860.800781 698.160156 883.839844 675.839844 C 883.839844 677.601562 883.679688 679.28125 883.679688 681.039062 C 883.679688 687.28125 884.238281 696.71875 885.199219 709.441406 L 916.480469 702.078125 C 916.480469 693.601562 916.640625 686.878906 916.878906 681.839844 C 917.359375 675.121094 918.320312 667.761719 919.679688 659.761719 C 920.558594 655.039062 922.71875 650.558594 926.160156 646.320312 L 934.078125 637.121094 C 936.960938 633.761719 939.761719 630.71875 942.238281 628.078125 C 945.199219 624.960938 947.839844 622.320312 950.160156 620.160156 C 952.800781 617.839844 955.121094 615.921875 957.121094 614.640625 C 959.28125 613.359375 961.039062 612.640625 962.320312 612.640625 C 964.640625 612.640625 965.839844 614.160156 965.839844 617.199219 C 965.839844 620.238281 963.601562 627.28125 959.199219 638.398438 C 950.878906 659.121094 946.71875 674.558594 946.71875 684.640625 C 946.71875 692.078125 948.640625 698 952.558594 702.480469 C 956.398438 706.878906 961.519531 709.121094 967.839844 709.121094 C 983.359375 709.121094 1002.078125 697.601562 1023.839844 674.640625 L 1023.839844 658.398438 C 1008.398438 676.558594 997.28125 685.679688 990.398438 685.679688 Z M 468.480469 619.121094 C 474.878906 587.839844 481.441406 563.601562 488.078125 546.238281 C 494.71875 528.878906 499.839844 520.160156 503.28125 520.160156 C 504.878906 520.160156 506.238281 521.199219 507.28125 523.359375 C 508.320312 525.441406 508.800781 528.320312 508.800781 531.761719 C 508.800781 543.679688 505.121094 557.839844 497.601562 574.398438 C 490.160156 590.878906 480.398438 605.839844 468.480469 619.121094 Z M 562.800781 611.28125 C 568.480469 601.761719 574.398438 597.039062 580.640625 597.039062 C 587.199219 597.039062 590.558594 601.601562 590.558594 610.640625 C 590.558594 628.960938 578.480469 641.441406 554.320312 648.238281 C 554.320312 633.039062 557.121094 620.71875 562.800781 611.28125 Z M 702.640625 658.078125 C 694.320312 674.160156 685.359375 682.160156 676 682.160156 C 672.160156 682.160156 668.960938 680.558594 666.480469 677.441406 C 664 674.320312 662.71875 670.160156 662.71875 665.039062 C 662.71875 651.601562 666.960938 636.800781 675.359375 620.800781 C 683.761719 604.800781 692.71875 596.800781 702.160156 596.800781 C 706.078125 596.800781 709.28125 598.238281 711.601562 601.28125 C 713.921875 604.238281 715.121094 608.398438 715.121094 613.679688 C 715.121094 627.28125 710.960938 642.078125 702.640625 658.160156 Z M 702.640625 658.078125 "/>
<path style=" stroke:none;fill-rule:nonzero;fill:rgb(100%,100%,100%);fill-opacity:1;" d="M 603.679688 519.039062 C 604.878906 520.71875 605.441406 522.878906 605.441406 525.441406 C 605.441406 528 604.71875 530.320312 603.28125 532.480469 C 601.839844 534.640625 599.761719 536.398438 596.960938 537.601562 C 594.238281 538.800781 591.121094 539.441406 587.679688 539.441406 C 581.921875 539.441406 577.601562 538.238281 574.558594 535.839844 C 571.519531 533.441406 569.601562 529.921875 568.800781 525.199219 L 576.238281 524 C 576.640625 526.960938 577.839844 529.28125 579.679688 530.800781 C 581.601562 532.398438 584.238281 533.199219 587.679688 533.199219 C 591.121094 533.199219 593.679688 532.480469 595.359375 531.121094 C 597.039062 529.761719 597.839844 528.078125 597.839844 526.160156 C 597.839844 524.480469 597.121094 523.121094 595.601562 522.160156 C 594.558594 521.519531 592 520.640625 587.921875 519.601562 C 582.398438 518.238281 578.640625 517.039062 576.480469 516 C 574.320312 514.960938 572.71875 513.601562 571.679688 511.761719 C 570.640625 509.921875 570 508 570 505.839844 C 570 503.839844 570.480469 502.078125 571.359375 500.398438 C 572.238281 498.71875 573.519531 497.359375 575.039062 496.238281 C 576.238281 495.359375 577.761719 494.640625 579.761719 494.078125 C 581.761719 493.519531 583.921875 493.199219 586.238281 493.199219 C 589.679688 493.199219 592.71875 493.679688 595.359375 494.71875 C 598 495.679688 599.921875 497.039062 601.199219 498.800781 C 602.480469 500.480469 603.28125 502.800781 603.761719 505.679688 L 596.398438 506.640625 C 596.078125 504.398438 595.121094 502.558594 593.519531 501.28125 C 591.921875 500 589.679688 499.359375 586.71875 499.359375 C 583.28125 499.359375 580.800781 499.921875 579.359375 501.039062 C 577.921875 502.160156 577.121094 503.519531 577.121094 505.039062 C 577.121094 506 577.441406 506.878906 578 507.679688 C 578.640625 508.480469 579.601562 509.121094 580.878906 509.679688 C 581.601562 509.921875 583.839844 510.558594 587.519531 511.601562 C 592.800781 513.039062 596.480469 514.160156 598.640625 515.039062 C 600.71875 515.921875 602.398438 517.28125 603.601562 518.960938 Z M 639.441406 530.558594 C 637.441406 532.398438 635.039062 533.28125 632.078125 533.28125 C 628.398438 533.28125 625.441406 531.921875 623.199219 529.28125 C 620.960938 526.640625 619.761719 522.238281 619.761719 516.320312 C 619.761719 510.398438 620.960938 506.160156 623.28125 503.519531 C 625.601562 500.878906 628.71875 499.441406 632.480469 499.441406 C 634.960938 499.441406 637.121094 500.160156 638.878906 501.679688 C 640.640625 503.199219 641.839844 505.441406 642.558594 508.398438 L 649.839844 507.28125 C 648.960938 502.800781 647.039062 499.359375 644 496.960938 C 640.960938 494.558594 637.039062 493.359375 632.238281 493.359375 C 628.398438 493.359375 624.960938 494.238281 621.679688 496.078125 C 618.480469 497.839844 616 500.558594 614.480469 504.160156 C 612.878906 507.761719 612.078125 511.921875 612.078125 516.71875 C 612.078125 524.078125 613.921875 529.761719 617.601562 533.679688 C 621.28125 537.601562 626.160156 539.601562 632.160156 539.601562 C 636.960938 539.601562 641.039062 538.160156 644.398438 535.28125 C 647.679688 532.398438 649.761719 528.398438 650.558594 523.359375 L 643.199219 522.398438 C 642.640625 526.160156 641.441406 528.878906 639.441406 530.71875 Z M 656.960938 538.398438 L 664.480469 538.398438 L 664.480469 494.238281 L 656.960938 494.238281 Z M 656.960938 486 L 664.480469 486 L 664.480469 477.359375 L 656.960938 477.359375 Z M 710.800781 494.160156 L 701.121094 494.160156 L 683.359375 512.160156 L 683.359375 477.359375 L 675.839844 477.359375 L 675.839844 538.320312 L 683.359375 538.320312 L 683.359375 520.800781 L 688.640625 515.761719 L 703.28125 538.320312 L 712.558594 538.320312 L 693.921875 510.558594 Z M 718.480469 486 L 726 486 L 726 477.359375 L 718.480469 477.359375 Z M 718.480469 538.398438 L 726 538.398438 L 726 494.238281 L 718.480469 494.238281 Z M 753.761719 531.679688 C 752.398438 531.839844 751.28125 532 750.480469 532 C 749.359375 532 748.480469 531.839844 747.921875 531.441406 C 747.359375 531.039062 746.878906 530.558594 746.640625 530 C 746.398438 529.359375 746.238281 528 746.238281 525.921875 L 746.238281 500.078125 L 753.761719 500.078125 L 753.761719 494.238281 L 746.238281 494.238281 L 746.238281 478.800781 L 738.800781 483.28125 L 738.800781 494.238281 L 733.28125 494.238281 L 733.28125 500.078125 L 738.800781 500.078125 L 738.800781 525.519531 C 738.800781 530 739.121094 532.960938 739.679688 534.320312 C 740.320312 535.761719 741.359375 536.878906 742.800781 537.679688 C 744.320312 538.558594 746.398438 538.960938 749.121094 538.960938 C 750.800781 538.960938 752.640625 538.71875 754.800781 538.320312 L 753.679688 531.679688 Z M 753.761719 531.679688 "/>
</g>
</svg>
