<?xml version="1.0" encoding="utf-8"?>
<!-- Generator: Adobe Illustrator 27.6.1, SVG Export Plug-In . SVG Version: 6.00 Build 0)  -->
<svg version="1.1" id="Layer_1" xmlns="http://www.w3.org/2000/svg" xmlns:xlink="http://www.w3.org/1999/xlink" x="0px" y="0px"
	 viewBox="0 0 800 800" style="enable-background:new 0 0 800 800;" xml:space="preserve">
<style type="text/css">
	.st0{fill:#6600FF;}
</style>
<path class="st0" d="M360.4,0c-14.2,0.4-28.1,7.2-39.8,20.2c-6.5,7.3-12,15.4-16.5,24.1c-11.7,22.1-14.1,47.1-18.5,71.4
	c-8.2,45.4-16.3,90.9-24.2,136.3c-0.9,5.3-3.1,7.6-8.1,9c-59,18.6-118,37.1-176.6,56.2c-12.9,4.2-25.8,9.6-37.1,16.8
	c-34.8,22.1-40,58.5-13.9,90.4c11.6,14.1,26.4,23.8,42.8,31.1c36.7,16.4,73.4,32.6,110,49.1c0.6,0.2,1.2,0.4,1.7,0.6h-0.1l43.6,17.9
	c0,0.8,0,1.4,0,2.3c-6.6,67.7-13,135.4-19.4,203.3c-1.3,13.9-0.4,27.6,4.6,41c10.6,28.9,35.4,38.2,62.6,23.3
	c12.4-6.8,22.3-16.5,31.2-27.2c45.7-54.2,91.5-108.2,137.1-162.5c3.6-4.4,6.8-5,12.1-3.2c11.6,3.9,23.2,7.7,34.8,11.6h0.1
	c0.6,0.4,1.4,0.6,2.4,1l4.8,1.4c41.5,13.8,89.3,25.8,130.9,39.6c13.4,4.4,20.8,5.5,34.9,3.2c10.4-1.6,19.8-2.1,27.6-7.8
	c20-11.1,33.2-31.9,33-56.1c-0.1-14.2-5.2-27.1-11.7-39.4c-27.3-51.9-54.5-103.8-82-155.6c-2.6-5-2.5-8.1,1.3-12.5
	c46-53.8,91.8-107.8,137.8-161.9c9-10.7,17-21.9,21.8-35.3c10.3-29.2-3-52.4-33.3-57.9c-13.7-2.3-27.7-1.6-41.1,2.2
	C647,150,581.2,167.4,515.6,184.9c-5.8,1.6-8.7,0.5-11.9-4.8c-26.6-44.8-53.5-89.4-80.7-133.9c-6.1-10.3-13.4-19.8-21.8-28.4
	C388.9,5.6,374.6-0.3,360.4,0L360.4,0z M366.1,123.5c2.6,1.8,4.8,4.2,6.2,7c29,48.2,58.1,96.3,87,144.6c2.4,3.9,4.5,5.2,9.3,3.9
	c50.9-13.5,101.7-27.1,152.6-40.5c12.2-3.2,24.5-6.4,36.9-9.6c-0.5,2.5-1.7,4.8-3.4,6.6c-41.9,49.3-83.8,98.7-125.9,147.9
	c-3.6,4.4-4,7.4-1.4,12.4c31.2,60.1,59,110.3,83.3,158.7l-123.2-34c-18-6-36-12-53.9-18c-5.4-1.8-8.3-1.1-12,3.2
	c-41.5,49.6-83.5,99.1-125.2,148.6c-1.6,1.9-3.7,3.5-6,4.3c1.2-12.5,2.2-25.1,3.4-37.8c5.1-52.5,9.9-104.8,15.1-157.3
	c-1.1-10.6,3.9-13.4-10.8-18.1c-49.7-19.8-111.4-44-160.4-63.5c2.2-2.1,4.9-3.7,7.9-4.4c59.9-19,119.8-38,179.8-56.9
	c4.2-1.3,6.6-3,7-7.7c0.4-4.9,1.7-9.9,2.5-14.7c8.1-45.4,16.1-90.9,24.2-136.3C361.5,149.1,363.9,136.3,366.1,123.5L366.1,123.5z"/>
</svg>
