<svg width="146.2373046875px" height="242px" xmlns="http://www.w3.org/2000/svg" viewBox="176.88134765625 -46 146.2373046875 242" style="background: rgba(0, 0, 0, 0);" preserveAspectRatio="xMidYMid"><defs><linearGradient id="editing-gradow-gradient" x1="0" x2="1" y1="0.5" y2="0.5" gradientUnits="objectBoundingBox"><stop offset="0" stop-color="#6600ff"></stop><stop offset="1" stop-color="#6600ff"></stop></linearGradient><filter id="editing-gradow-filter" x="-100%" y="-100%" width="300%" height="300%"><feFlood flood-color="#ffffff" result="flood"></feFlood><feComposite operator="in" in2="SourceAlpha" in="flood" result="shadow"></feComposite><feOffset dx="-4" dy="-4" in="SourceGraphic" result="offset-1"></feOffset><feOffset dx="4" dy="4" in="shadow" result="offset-2"></feOffset><feMerge><feMergeNode in="offset-2"></feMergeNode><feMergeNode in="offset-1"></feMergeNode></feMerge></filter></defs><g filter="url(#editing-gradow-filter)"><g transform="translate(210.38004684448242, 122.60000038146973)"><path d="M63.84 2.80L63.84 2.80L63.84 2.80Q45.92 2.80 44.24-22.68L44.24-22.68L20.16-22.68L20.16-22.68Q17.36-16.24 15.40-10.64L15.40-10.64L11.76 0L-7.84 0L36.26-92.40L66.36-92.40L72.24-24.36L72.24-24.36Q73.64-9.66 79.24-5.32L79.24-5.32L79.24-5.32Q75.18 2.80 63.84 2.80ZM32.20-50.68L24.50-32.90L43.82-32.90L42.14-68.88L42.14-72.66L32.20-50.68Z" fill="url(#editing-gradow-gradient)"></path></g></g><style>text {
  font-size: 64px;
  font-family: Arial Black;
  dominant-baseline: central;
  text-anchor: middle;
}</style></svg>