<svg width="142.616357421875px" height="242px" xmlns="http://www.w3.org/2000/svg" viewBox="178.6918212890625 -46 142.616357421875 242" style="background: rgba(0, 0, 0, 0);" preserveAspectRatio="xMidYMid"><defs><linearGradient id="editing-gradow-gradient" x1="0" x2="1" y1="0.5" y2="0.5" gradientUnits="objectBoundingBox"><stop offset="0" stop-color="#6600ff"></stop><stop offset="1" stop-color="#6600ff"></stop></linearGradient><filter id="editing-gradow-filter" x="-100%" y="-100%" width="300%" height="300%"><feFlood flood-color="#ffffff" result="flood"></feFlood><feComposite operator="in" in2="SourceAlpha" in="flood" result="shadow"></feComposite><feOffset dx="-4" dy="-4" in="SourceGraphic" result="offset-1"></feOffset><feOffset dx="4" dy="4" in="shadow" result="offset-2"></feOffset><feMerge><feMergeNode in="offset-2"></feMergeNode><feMergeNode in="offset-1"></feMergeNode></feMerge></filter></defs><g filter="url(#editing-gradow-filter)"><g transform="translate(203.79673528671265, 123.92999839782715)"><path d="M75.46-28.98L75.46-28.98L75.46-28.98Q79.10-26.32 79.10-20.65L79.10-20.65L79.10-20.65Q79.10-14.98 76.65-10.99L76.65-10.99L76.65-10.99Q74.20-7.00 69.44-3.92L69.44-3.92L69.44-3.92Q59.22 2.66 41.37 2.66L41.37 2.66L41.37 2.66Q23.52 2.66 13.79-6.65L13.79-6.65L13.79-6.65Q4.06-15.96 4.06-32.48L4.06-32.48L4.06-32.48Q4.06-55.86 16.24-73.64L16.24-73.64L16.24-73.64Q25.48-86.80 42.00-92.40L42.00-92.40L42.00-92.40Q50.54-95.20 58.94-95.20L58.94-95.20L58.94-95.20Q67.34-95.20 72.52-94.08L72.52-94.08L72.52-94.08Q77.70-92.96 81.62-90.72L81.62-90.72L81.62-90.72Q90.16-85.82 90.16-77.98L90.16-77.98L90.16-77.98Q90.16-70.84 83.44-65.52L83.44-65.52L83.44-65.52Q77.28-60.76 72.24-60.76L72.24-60.76L72.24-60.76Q67.20-60.76 65.10-61.46L65.10-61.46L65.10-61.46Q65.66-66.50 65.66-69.79L65.66-69.79L65.66-69.79Q65.66-73.08 65.52-75.46L65.52-75.46L65.52-75.46Q65.38-77.84 64.68-80.08L64.68-80.08L64.68-80.08Q63.28-85.26 59.01-85.26L59.01-85.26L59.01-85.26Q54.74-85.26 50.47-81.27L50.47-81.27L50.47-81.27Q46.20-77.28 42.56-70.56L42.56-70.56L42.56-70.56Q34.30-55.30 34.30-37.24L34.30-37.24L34.30-37.24Q34.30-28.56 39.20-23.59L39.20-23.59L39.20-23.59Q44.10-18.62 54.60-18.62L54.60-18.62L54.60-18.62Q62.44-18.62 69.86-23.80L69.86-23.80L69.86-23.80Q73.08-26.04 75.46-28.98Z" fill="url(#editing-gradow-gradient)"></path></g></g><style>text {
  font-size: 64px;
  font-family: Arial Black;
  dominant-baseline: central;
  text-anchor: middle;
}</style></svg>