<svg width="153.28437499999998px" height="242px" xmlns="http://www.w3.org/2000/svg" viewBox="173.35781250000002 -46 153.28437499999998 242" style="background: rgba(0, 0, 0, 0);" preserveAspectRatio="xMidYMid"><defs><linearGradient id="editing-gradow-gradient" x1="0" x2="1" y1="0.5" y2="0.5" gradientUnits="objectBoundingBox"><stop offset="0" stop-color="#6600ff"></stop><stop offset="1" stop-color="#6600ff"></stop></linearGradient><filter id="editing-gradow-filter" x="-100%" y="-100%" width="300%" height="300%"><feFlood flood-color="#ffffff" result="flood"></feFlood><feComposite operator="in" in2="SourceAlpha" in="flood" result="shadow"></feComposite><feOffset dx="-4" dy="-4" in="SourceGraphic" result="offset-1"></feOffset><feOffset dx="4" dy="4" in="shadow" result="offset-2"></feOffset><feMerge><feMergeNode in="offset-2"></feMergeNode><feMergeNode in="offset-1"></feMergeNode></feMerge></filter></defs><g filter="url(#editing-gradow-filter)"><g transform="translate(202.8200100660324, 122.80999946594238)"><path d="M93.24-58.10L93.24-58.10L93.24-58.10Q93.24 1.54 28.56 1.54L28.56 1.54L28.56 1.54Q18.20 1.54 1.12-0.98L1.12-0.98L16.80-83.72L16.80-83.72Q17.92-89.32 18.62-92.54L18.62-92.54L18.62-92.54Q39.90-94.08 49.35-94.08L49.35-94.08L49.35-94.08Q58.80-94.08 67.48-92.12L67.48-92.12L67.48-92.12Q76.16-90.16 81.90-85.82L81.90-85.82L81.90-85.82Q93.24-77.28 93.24-58.10ZM64.40-63.28L64.40-63.28L64.40-63.28Q64.40-84.14 49.42-84.14L49.42-84.14L48.02-84.14L48.02-84.14Q47.32-84.14 46.62-84.00L46.62-84.00L32.20-8.82L32.20-8.82Q32.76-8.54 33.32-8.54L33.32-8.54L34.44-8.54L34.44-8.54Q39.62-8.54 45.01-11.76L45.01-11.76L45.01-11.76Q50.40-14.98 54.60-21.56L54.60-21.56L54.60-21.56Q64.40-36.82 64.40-63.28Z" fill="url(#editing-gradow-gradient)"></path></g></g><style>text {
  font-size: 64px;
  font-family: Arial Black;
  dominant-baseline: central;
  text-anchor: middle;
}</style></svg>