<svg width="127.00361328125px" height="242px" xmlns="http://www.w3.org/2000/svg" viewBox="186.498193359375 -46 127.00361328125 242" style="background: rgba(0, 0, 0, 0);" preserveAspectRatio="xMidYMid"><defs><linearGradient id="editing-gradow-gradient" x1="0" x2="1" y1="0.5" y2="0.5" gradientUnits="objectBoundingBox"><stop offset="0" stop-color="#6600ff"></stop><stop offset="1" stop-color="#6600ff"></stop></linearGradient><filter id="editing-gradow-filter" x="-100%" y="-100%" width="300%" height="300%"><feFlood flood-color="#ffffff" result="flood"></feFlood><feComposite operator="in" in2="SourceAlpha" in="flood" result="shadow"></feComposite><feOffset dx="-4" dy="-4" in="SourceGraphic" result="offset-1"></feOffset><feOffset dx="4" dy="4" in="shadow" result="offset-2"></feOffset><feMerge><feMergeNode in="offset-2"></feMergeNode><feMergeNode in="offset-1"></feMergeNode></feMerge></filter></defs><g filter="url(#editing-gradow-filter)"><g transform="translate(211.77759063243866, 122.60000038146973)"><path d="M62.16-21.56L62.16-21.56L62.16-21.56Q64.82-18.20 64.82-12.74L64.82-12.74L64.82-12.74Q64.82-5.18 59.22-1.19L59.22-1.19L59.22-1.19Q53.62 2.80 44.80 2.80L44.80 2.80L44.80 2.80Q39.76 2.80 32.06 1.68L32.06 1.68L32.06 1.68Q16.94-0.70 12.32-0.70L12.32-0.70L12.32-0.70Q7.70-0.70 5.88-0.49L5.88-0.49L5.88-0.49Q4.06-0.28 1.12 0L1.12 0L18.34-92.40L78.68-92.40L78.68-92.40Q78.68-83.86 74.55-79.38L74.55-79.38L74.55-79.38Q70.42-74.90 62.30-74.90L62.30-74.90L62.30-74.90Q54.18-74.90 45.92-78.68L45.92-78.68L41.58-54.18L66.50-54.18L66.50-54.18Q66.50-46.76 62.86-42.63L62.86-42.63L62.86-42.63Q59.22-38.50 53.13-38.50L53.13-38.50L53.13-38.50Q47.04-38.50 43.26-39.90L43.26-39.90L43.26-39.90Q39.48-41.30 39.06-41.72L39.06-41.72L34.02-15.26L34.02-15.26Q37.38-14.84 43.68-14.84L43.68-14.84L43.68-14.84Q54.46-14.84 62.16-21.56Z" fill="url(#editing-gradow-gradient)"></path></g></g><style>text {
  font-size: 64px;
  font-family: Arial Black;
  dominant-baseline: central;
  text-anchor: middle;
}</style></svg>