<svg width="130.240478515625px" height="242px" xmlns="http://www.w3.org/2000/svg" viewBox="184.8797607421875 -46 130.240478515625 242" style="background: rgba(0, 0, 0, 0);" preserveAspectRatio="xMidYMid"><defs><linearGradient id="editing-gradow-gradient" x1="0" x2="1" y1="0.5" y2="0.5" gradientUnits="objectBoundingBox"><stop offset="0" stop-color="#6600ff"></stop><stop offset="1" stop-color="#6600ff"></stop></linearGradient><filter id="editing-gradow-filter" x="-100%" y="-100%" width="300%" height="300%"><feFlood flood-color="#ffffff" result="flood"></feFlood><feComposite operator="in" in2="SourceAlpha" in="flood" result="shadow"></feComposite><feOffset dx="-4" dy="-4" in="SourceGraphic" result="offset-1"></feOffset><feOffset dx="4" dy="4" in="shadow" result="offset-2"></feOffset><feMerge><feMergeNode in="offset-2"></feMergeNode><feMergeNode in="offset-1"></feMergeNode></feMerge></filter></defs><g filter="url(#editing-gradow-filter)"><g transform="translate(211.98997509479523, 121.19999885559082)"><path d="M66.08-74.20L66.08-74.20L66.08-74.20Q54.74-74.20 46.48-77.98L46.48-77.98L42.00-55.30L69.02-55.30L69.02-55.30Q69.02-47.88 65.31-43.19L65.31-43.19L65.31-43.19Q61.60-38.50 54.88-38.50L54.88-38.50L54.88-38.50Q47.60-38.50 40.88-41.16L40.88-41.16L40.88-41.16Q39.48-41.72 39.34-41.86L39.34-41.86L31.36 0L0.84 0L18.62-92.40L81.06-92.40L81.06-92.40Q81.06-83.86 77.07-79.03L77.07-79.03L77.07-79.03Q73.08-74.20 66.08-74.20Z" fill="url(#editing-gradow-gradient)"></path></g></g><style>text {
  font-size: 64px;
  font-family: Arial Black;
  dominant-baseline: central;
  text-anchor: middle;
}</style></svg>