<svg width="144.903125px" height="242px" xmlns="http://www.w3.org/2000/svg" viewBox="177.5484375 -46 144.903125 242" style="background: rgba(0, 0, 0, 0);" preserveAspectRatio="xMidYMid"><defs><linearGradient id="editing-gradow-gradient" x1="0" x2="1" y1="0.5" y2="0.5" gradientUnits="objectBoundingBox"><stop offset="0" stop-color="#6600ff"></stop><stop offset="1" stop-color="#6600ff"></stop></linearGradient><filter id="editing-gradow-filter" x="-100%" y="-100%" width="300%" height="300%"><feFlood flood-color="#ffffff" result="flood"></feFlood><feComposite operator="in" in2="SourceAlpha" in="flood" result="shadow"></feComposite><feOffset dx="-4" dy="-4" in="SourceGraphic" result="offset-1"></feOffset><feOffset dx="4" dy="4" in="shadow" result="offset-2"></feOffset><feMerge><feMergeNode in="offset-2"></feMergeNode><feMergeNode in="offset-1"></feMergeNode></feMerge></filter></defs><g filter="url(#editing-gradow-filter)"><g transform="translate(202.96001052856445, 123.99999809265137)"><path d="M59.08-45.08L87.36-47.60L87.36-47.60Q77.28-25.48 77.28 0.14L77.28 0.14L77.28 0.14Q73.50 2.80 67.97 2.80L67.97 2.80L67.97 2.80Q62.44 2.80 58.94 0.21L58.94 0.21L58.94 0.21Q55.44-2.38 54.74-5.04L54.74-5.04L54.74-5.04Q51.24-1.40 45.57 0.70L45.57 0.70L45.57 0.70Q39.90 2.80 33.88 2.80L33.88 2.80L33.88 2.80Q27.86 2.80 22.61 0.84L22.61 0.84L22.61 0.84Q17.36-1.12 13.30-5.46L13.30-5.46L13.30-5.46Q4.34-14.98 4.34-33.04L4.34-33.04L4.34-33.04Q4.34-61.04 19.32-77.84L19.32-77.84L19.32-77.84Q34.72-95.20 62.02-95.20L62.02-95.20L62.02-95.20Q80.92-95.20 87.64-85.40L87.64-85.40L87.64-85.40Q89.74-82.32 89.74-78.61L89.74-78.61L89.74-78.61Q89.74-74.90 88.13-71.75L88.13-71.75L88.13-71.75Q86.52-68.60 84.00-66.08L84.00-66.08L84.00-66.08Q77.98-60.48 70.56-60.48L70.56-60.48L70.56-60.48Q67.62-60.48 64.82-61.46L64.82-61.46L64.82-61.46Q65.38-65.66 65.38-70.56L65.38-70.56L65.38-70.56Q65.38-75.46 65.03-77.70L65.03-77.70L65.03-77.70Q64.68-79.94 63.84-81.76L63.84-81.76L63.84-81.76Q62.02-85.54 58.03-85.54L58.03-85.54L58.03-85.54Q54.04-85.54 49.63-81.27L49.63-81.27L49.63-81.27Q45.22-77.00 41.72-70L41.72-70L41.72-70Q34.02-54.32 34.02-35.42L34.02-35.42L34.02-35.42Q34.02-26.74 37.38-20.58L37.38-20.58L37.38-20.58Q41.02-13.86 47.46-13.86L47.46-13.86L47.46-13.86Q49.70-13.86 51.73-14.98L51.73-14.98L51.73-14.98Q53.76-16.10 54.60-16.94L54.60-16.94L59.08-45.08Z" fill="url(#editing-gradow-gradient)"></path></g></g><style>text {
  font-size: 64px;
  font-family: Arial Black;
  dominant-baseline: central;
  text-anchor: middle;
}</style></svg>