<svg width="154.615625px" height="242px" xmlns="http://www.w3.org/2000/svg" viewBox="172.6921875 -46 154.615625 242" style="background: rgba(0, 0, 0, 0);" preserveAspectRatio="xMidYMid"><defs><linearGradient id="editing-gradow-gradient" x1="0" x2="1" y1="0.5" y2="0.5" gradientUnits="objectBoundingBox"><stop offset="0" stop-color="#6600ff"></stop><stop offset="1" stop-color="#6600ff"></stop></linearGradient><filter id="editing-gradow-filter" x="-100%" y="-100%" width="300%" height="300%"><feFlood flood-color="#ffffff" result="flood"></feFlood><feComposite operator="in" in2="SourceAlpha" in="flood" result="shadow"></feComposite><feOffset dx="-4" dy="-4" in="SourceGraphic" result="offset-1"></feOffset><feOffset dx="4" dy="4" in="shadow" result="offset-2"></feOffset><feMerge><feMergeNode in="offset-2"></feMergeNode><feMergeNode in="offset-1"></feMergeNode></feMerge></filter></defs><g filter="url(#editing-gradow-filter)"><g transform="translate(200.5800095796585, 122.60000038146973)"><path d="M54.60-10.50L54.60-10.50L54.60-10.50Q54.60-20.30 58.52-39.90L58.52-39.90L37.80-39.90L30.10 0L0.84 0L18.62-92.40L48.16-92.40L40.04-51.10L60.76-51.10L68.46-92.40L98.00-92.40L98.00-92.40Q96.04-82.04 93.52-70.42L93.52-70.42L88.76-47.60L88.76-47.60Q83.44-21.00 83.44-9.38L83.44-9.38L83.44-9.38Q83.44-4.62 84.98-1.96L84.98-1.96L84.98-1.96Q77.98 2.80 69.79 2.80L69.79 2.80L69.79 2.80Q61.60 2.80 58.10-1.12L58.10-1.12L58.10-1.12Q54.60-5.04 54.60-10.50Z" fill="url(#editing-gradow-gradient)"></path></g></g><style>text {
  font-size: 64px;
  font-family: Arial Black;
  dominant-baseline: central;
  text-anchor: middle;
}</style></svg>