<svg width="108.5440185546875px" height="242px" xmlns="http://www.w3.org/2000/svg" viewBox="195.72799072265624 -46 108.5440185546875 242" style="background: rgba(0, 0, 0, 0);" preserveAspectRatio="xMidYMid"><defs><linearGradient id="editing-gradow-gradient" x1="0" x2="1" y1="0.5" y2="0.5" gradientUnits="objectBoundingBox"><stop offset="0" stop-color="#6600ff"></stop><stop offset="1" stop-color="#6600ff"></stop></linearGradient><filter id="editing-gradow-filter" x="-100%" y="-100%" width="300%" height="300%"><feFlood flood-color="#ffffff" result="flood"></feFlood><feComposite operator="in" in2="SourceAlpha" in="flood" result="shadow"></feComposite><feOffset dx="-4" dy="-4" in="SourceGraphic" result="offset-1"></feOffset><feOffset dx="4" dy="4" in="shadow" result="offset-2"></feOffset><feMerge><feMergeNode in="offset-2"></feMergeNode><feMergeNode in="offset-1"></feMergeNode></feMerge></filter></defs><g filter="url(#editing-gradow-filter)"><g transform="translate(225.4300937652588, 134.49999809265137)"><path d="M-15.26 19.32L-15.26 19.32L-15.26 19.32Q-8.12 18.48-3.64 9.24L-3.64 9.24L-3.64 9.24Q0.98-0.14 5.18-21.70L5.18-21.70L18.76-92.40L49.14-92.40L35.56-21.70L35.56-21.70Q30.38 5.74 21.84 16.52L21.84 16.52L21.84 16.52Q17.36 22.12 11.69 24.36L11.69 24.36L11.69 24.36Q6.02 26.60-0.14 26.60L-0.14 26.60L-0.14 26.60Q-6.30 26.60-10.29 24.36L-10.29 24.36L-10.29 24.36Q-14.28 22.12-15.26 19.32Z" fill="url(#editing-gradow-gradient)"></path></g></g><style>text {
  font-size: 64px;
  font-family: Arial Black;
  dominant-baseline: central;
  text-anchor: middle;
}</style></svg>