<svg width="161.656103515625px" height="242px" xmlns="http://www.w3.org/2000/svg" viewBox="169.1719482421875 -46 161.656103515625 242" style="background: rgba(0, 0, 0, 0);" preserveAspectRatio="xMidYMid"><defs><linearGradient id="editing-gradow-gradient" x1="0" x2="1" y1="0.5" y2="0.5" gradientUnits="objectBoundingBox"><stop offset="0" stop-color="#6600ff"></stop><stop offset="1" stop-color="#6600ff"></stop></linearGradient><filter id="editing-gradow-filter" x="-100%" y="-100%" width="300%" height="300%"><feFlood flood-color="#ffffff" result="flood"></feFlood><feComposite operator="in" in2="SourceAlpha" in="flood" result="shadow"></feComposite><feOffset dx="-4" dy="-4" in="SourceGraphic" result="offset-1"></feOffset><feOffset dx="4" dy="4" in="shadow" result="offset-2"></feOffset><feMerge><feMergeNode in="offset-2"></feMergeNode><feMergeNode in="offset-1"></feMergeNode></feMerge></filter></defs><g filter="url(#editing-gradow-filter)"><g transform="translate(200.78940856456757, 123.78999900817871)"><path d="M30.94 0L1.12 0L17.08-85.12L18.62-92.40L48.58-92.40L30.94 0ZM87.78-8.26L87.78-8.26L87.78-8.26Q84.00 2.80 69.44 2.80L69.44 2.80L69.44 2.80Q58.66 2.80 51.24-10.08L51.24-10.08L51.24-10.08Q43.68-22.96 42.28-43.96L42.28-43.96L42.28-43.96Q57.68-72.10 68.32-83.72L68.32-83.72L68.32-83.72Q78.54-94.78 89.18-94.78L89.18-94.78L89.18-94.78Q94.92-94.78 99.05-91.70L99.05-91.70L99.05-91.70Q103.18-88.62 104.16-83.72L104.16-83.72L104.16-83.72Q99.40-81.76 97.16-80.22L97.16-80.22L97.16-80.22Q91.56-76.02 84.00-66.64L84.00-66.64L71.26-51.38L71.26-51.38Q68.18-47.74 66.92-46.06L66.92-46.06L66.92-46.06Q69.02-34.30 75.32-22.68L75.32-22.68L75.32-22.68Q81.34-11.62 87.78-8.26Z" fill="url(#editing-gradow-gradient)"></path></g></g><style>text {
  font-size: 64px;
  font-family: Arial Black;
  dominant-baseline: central;
  text-anchor: middle;
}</style></svg>