<svg width="115.96249999999999px" height="242px" xmlns="http://www.w3.org/2000/svg" viewBox="192.01875 -46 115.96249999999999 242" style="background: rgba(0, 0, 0, 0);" preserveAspectRatio="xMidYMid"><defs><linearGradient id="editing-gradow-gradient" x1="0" x2="1" y1="0.5" y2="0.5" gradientUnits="objectBoundingBox"><stop offset="0" stop-color="#6600ff"></stop><stop offset="1" stop-color="#6600ff"></stop></linearGradient><filter id="editing-gradow-filter" x="-100%" y="-100%" width="300%" height="300%"><feFlood flood-color="#ffffff" result="flood"></feFlood><feComposite operator="in" in2="SourceAlpha" in="flood" result="shadow"></feComposite><feOffset dx="-4" dy="-4" in="SourceGraphic" result="offset-1"></feOffset><feOffset dx="4" dy="4" in="shadow" result="offset-2"></feOffset><feMerge><feMergeNode in="offset-2"></feMergeNode><feMergeNode in="offset-1"></feMergeNode></feMerge></filter></defs><g filter="url(#editing-gradow-filter)"><g transform="translate(217.59000992774963, 122.60000038146973)"><path d="M60.90-21.56L60.90-21.56L60.90-21.56Q63.56-18.20 63.56-11.69L63.56-11.69L63.56-11.69Q63.56-5.18 58.59-1.19L58.59-1.19L58.59-1.19Q53.62 2.80 44.94 2.80L44.94 2.80L44.94 2.80Q39.90 2.80 32.06 1.68L32.06 1.68L32.06 1.68Q16.66-0.70 12.25-0.70L12.25-0.70L12.25-0.70Q7.84-0.70 6.02-0.49L6.02-0.49L6.02-0.49Q4.20-0.28 1.26 0L1.26 0L18.20-92.40L48.86-92.40L34.86-15.40L34.86-15.40Q36.68-15.12 38.36-15.12L38.36-15.12L41.86-15.12L41.86-15.12Q53.62-15.12 60.90-21.56Z" fill="url(#editing-gradow-gradient)"></path></g></g><style>text {
  font-size: 64px;
  font-family: Arial Black;
  dominant-baseline: central;
  text-anchor: middle;
}</style></svg>