<svg width="190.034521484375px" height="242px" xmlns="http://www.w3.org/2000/svg" viewBox="154.9827392578125 -46 190.034521484375 242" style="background: rgba(0, 0, 0, 0);" preserveAspectRatio="xMidYMid"><defs><linearGradient id="editing-gradow-gradient" x1="0" x2="1" y1="0.5" y2="0.5" gradientUnits="objectBoundingBox"><stop offset="0" stop-color="#6600ff"></stop><stop offset="1" stop-color="#6600ff"></stop></linearGradient><filter id="editing-gradow-filter" x="-100%" y="-100%" width="300%" height="300%"><feFlood flood-color="#ffffff" result="flood"></feFlood><feComposite operator="in" in2="SourceAlpha" in="flood" result="shadow"></feComposite><feOffset dx="-4" dy="-4" in="SourceGraphic" result="offset-1"></feOffset><feOffset dx="4" dy="4" in="shadow" result="offset-2"></feOffset><feMerge><feMergeNode in="offset-2"></feMergeNode><feMergeNode in="offset-1"></feMergeNode></feMerge></filter></defs><g filter="url(#editing-gradow-filter)"><g transform="translate(190.2200243473053, 122.60000038146973)"><path d="M14.28 0L-1.82 0L23.52-92.40L52.78-92.40L59.22-39.62L85.26-92.40L109.76-92.40L112.28-23.24L112.28-23.24Q112.84-9.52 119.56-5.32L119.56-5.32L119.56-5.32Q118.02-2.52 113.54 0.14L113.54 0.14L113.54 0.14Q109.06 2.80 103.11 2.80L103.11 2.80L103.11 2.80Q97.16 2.80 93.66 1.12L93.66 1.12L93.66 1.12Q90.16-0.56 88.20-3.36L88.20-3.36L88.20-3.36Q84.70-8.40 84.70-18.06L84.70-18.06L84.70-61.32L57.12 0L39.76 0L29.96-62.86L14.28 0Z" fill="url(#editing-gradow-gradient)"></path></g></g><style>text {
  font-size: 64px;
  font-family: Arial Black;
  dominant-baseline: central;
  text-anchor: middle;
}</style></svg>