<svg width="155.1875px" height="242px" xmlns="http://www.w3.org/2000/svg" viewBox="172.40625 -46 155.1875 242" style="background: rgba(0, 0, 0, 0);" preserveAspectRatio="xMidYMid"><defs><linearGradient id="editing-gradow-gradient" x1="0" x2="1" y1="0.5" y2="0.5" gradientUnits="objectBoundingBox"><stop offset="0" stop-color="#6600ff"></stop><stop offset="1" stop-color="#6600ff"></stop></linearGradient><filter id="editing-gradow-filter" x="-100%" y="-100%" width="300%" height="300%"><feFlood flood-color="#ffffff" result="flood"></feFlood><feComposite operator="in" in2="SourceAlpha" in="flood" result="shadow"></feComposite><feOffset dx="-4" dy="-4" in="SourceGraphic" result="offset-1"></feOffset><feOffset dx="4" dy="4" in="shadow" result="offset-2"></feOffset><feMerge><feMergeNode in="offset-2"></feMergeNode><feMergeNode in="offset-1"></feMergeNode></feMerge></filter></defs><g filter="url(#editing-gradow-filter)"><g transform="translate(200.30001020431519, 124.06999778747559)"><path d="M4.48-34.16L4.48-34.16L4.48-34.16Q4.48-60.62 18.20-77.28L18.20-77.28L18.20-77.28Q32.76-95.34 58.10-95.34L58.10-95.34L58.10-95.34Q76.44-95.34 85.68-86.45L85.68-86.45L85.68-86.45Q94.92-77.56 94.92-58.80L94.92-58.80L94.92-58.80Q94.92-30.24 80.36-13.58L80.36-13.58L80.36-13.58Q65.94 2.80 41.72 2.80L41.72 2.80L41.72 2.80Q22.82 2.80 13.65-6.65L13.65-6.65L13.65-6.65Q4.48-16.10 4.48-34.16ZM41.30-63.14L41.30-63.14L41.30-63.14Q35-37.94 35-18.06L35-18.06L35-18.06Q35-13.30 36.61-10.22L36.61-10.22L36.61-10.22Q38.22-7.14 42.49-7.14L42.49-7.14L42.49-7.14Q46.76-7.14 49.42-9.17L49.42-9.17L49.42-9.17Q52.08-11.20 54.18-15.82L54.18-15.82L54.18-15.82Q57.54-23.38 60.69-39.41L60.69-39.41L60.69-39.41Q63.84-55.44 64.12-62.09L64.12-62.09L64.12-62.09Q64.40-68.74 64.40-73.78L64.40-73.78L64.40-73.78Q64.40-78.82 62.86-82.04L62.86-82.04L62.86-82.04Q61.32-85.26 57.19-85.26L57.19-85.26L57.19-85.26Q53.06-85.26 50.26-82.74L50.26-82.74L50.26-82.74Q45.08-77.98 41.30-63.14Z" fill="url(#editing-gradow-gradient)"></path></g></g><style>text {
  font-size: 64px;
  font-family: Arial Black;
  dominant-baseline: central;
  text-anchor: middle;
}</style></svg>