<svg width="153.85625px" height="242px" xmlns="http://www.w3.org/2000/svg" viewBox="173.071875 -46 153.85625 242" style="background: rgba(0, 0, 0, 0);" preserveAspectRatio="xMidYMid"><defs><linearGradient id="editing-gradow-gradient" x1="0" x2="1" y1="0.5" y2="0.5" gradientUnits="objectBoundingBox"><stop offset="0" stop-color="#6600ff"></stop><stop offset="1" stop-color="#6600ff"></stop></linearGradient><filter id="editing-gradow-filter" x="-100%" y="-100%" width="300%" height="300%"><feFlood flood-color="#ffffff" result="flood"></feFlood><feComposite operator="in" in2="SourceAlpha" in="flood" result="shadow"></feComposite><feOffset dx="-4" dy="-4" in="SourceGraphic" result="offset-1"></feOffset><feOffset dx="4" dy="4" in="shadow" result="offset-2"></feOffset><feMerge><feMergeNode in="offset-2"></feMergeNode><feMergeNode in="offset-1"></feMergeNode></feMerge></filter></defs><g filter="url(#editing-gradow-filter)"><g transform="translate(198.6200041770935, 135.19999504089355)"><path d="M15.82 1.82L18.90-8.40L18.90-8.40Q23.80-5.74 31.08-5.74L31.08-5.74L31.08-5.74Q38.36-5.74 44.45-10.15L44.45-10.15L44.45-10.15Q50.54-14.56 54.88-22.68L54.88-22.68L54.88-22.68Q63.84-39.90 63.84-67.62L63.84-67.62L63.84-67.62Q63.84-85.26 55.86-85.26L55.86-85.26L55.86-85.26Q51.66-85.26 47.60-80.64L47.60-80.64L47.60-80.64Q43.54-76.02 40.32-68.60L40.32-68.60L40.32-68.60Q33.32-51.66 33.32-31.78L33.32-31.78L33.32-31.78Q33.32-27.72 35.28-25.27L35.28-25.27L35.28-25.27Q37.24-22.82 40.74-22.82L40.74-22.82L40.74-22.82Q40.18-18.48 36.40-15.40L36.40-15.40L36.40-15.40Q32.62-12.32 27.86-12.32L27.86-12.32L27.86-12.32Q16.52-12.32 10.71-19.39L10.71-19.39L10.71-19.39Q4.90-26.46 4.90-39.27L4.90-39.27L4.90-39.27Q4.90-52.08 8.82-62.16L8.82-62.16L8.82-62.16Q12.74-72.24 19.60-79.59L19.60-79.59L19.60-79.59Q26.46-86.94 35.91-91.14L35.91-91.14L35.91-91.14Q45.36-95.34 56.56-95.34L56.56-95.34L56.56-95.34Q94.08-95.34 94.08-58.80L94.08-58.80L94.08-58.80Q94.08-32.48 81.48-16.38L81.48-16.38L81.48-16.38Q68.88-0.14 47.04 1.82L47.04 1.82L47.04 1.82Q59.92 4.62 72.94 4.62L72.94 4.62L72.94 4.62Q83.16 4.62 90.72 0.28L90.72 0.28L90.72 0.28Q92.82-0.98 93.66-2.38L93.66-2.38L93.66-2.38Q97.86 1.40 97.86 8.89L97.86 8.89L97.86 8.89Q97.86 16.38 91.21 20.72L91.21 20.72L91.21 20.72Q84.56 25.06 71.61 25.06L71.61 25.06L71.61 25.06Q58.66 25.06 43.68 19.04L43.68 19.04L43.68 19.04Q28.70 13.02 15.82 1.82L15.82 1.82Z" fill="url(#editing-gradow-gradient)"></path></g></g><style>text {
  font-size: 64px;
  font-family: Arial Black;
  dominant-baseline: central;
  text-anchor: middle;
}</style></svg>