<svg width="149.665625px" height="242px" xmlns="http://www.w3.org/2000/svg" viewBox="175.1671875 -46 149.665625 242" style="background: rgba(0, 0, 0, 0);" preserveAspectRatio="xMidYMid"><defs><linearGradient id="editing-gradow-gradient" x1="0" x2="1" y1="0.5" y2="0.5" gradientUnits="objectBoundingBox"><stop offset="0" stop-color="#6600ff"></stop><stop offset="1" stop-color="#6600ff"></stop></linearGradient><filter id="editing-gradow-filter" x="-100%" y="-100%" width="300%" height="300%"><feFlood flood-color="#ffffff" result="flood"></feFlood><feComposite operator="in" in2="SourceAlpha" in="flood" result="shadow"></feComposite><feOffset dx="-4" dy="-4" in="SourceGraphic" result="offset-1"></feOffset><feOffset dx="4" dy="4" in="shadow" result="offset-2"></feOffset><feMerge><feMergeNode in="offset-2"></feMergeNode><feMergeNode in="offset-1"></feMergeNode></feMerge></filter></defs><g filter="url(#editing-gradow-filter)"><g transform="translate(203.800013422966, 123.15999794006348)"><path d="M31.08 0L1.12 0L18.20-91.98L18.20-91.98Q32.06-93.52 52.29-93.52L52.29-93.52L52.29-93.52Q72.52-93.52 81.90-87.64L81.90-87.64L81.90-87.64Q91.28-81.76 91.28-69.93L91.28-69.93L91.28-69.93Q91.28-58.10 85.19-50.68L85.19-50.68L85.19-50.68Q79.10-43.26 68.60-40.88L68.60-40.88L68.60-40.88Q70.98-29.26 76.44-19.88L76.44-19.88L76.44-19.88Q81.48-11.06 87.36-8.26L87.36-8.26L87.36-8.26Q85.26-2.38 80.99 0.21L80.99 0.21L80.99 0.21Q76.72 2.80 70.63 2.80L70.63 2.80L70.63 2.80Q64.54 2.80 59.78-0.77L59.78-0.77L59.78-0.77Q55.02-4.34 51.24-10.92L51.24-10.92L51.24-10.92Q43.26-25.20 42.42-47.74L42.42-47.74L43.40-47.74L43.40-47.74Q53.76-48.02 58.94-53.41L58.94-53.41L58.94-53.41Q64.12-58.80 64.12-70.14L64.12-70.14L64.12-70.14Q64.12-84.28 52.22-84.84L52.22-84.84L49.14-84.84L49.14-84.84Q47.88-84.84 47.18-84.70L47.18-84.70L31.08 0Z" fill="url(#editing-gradow-gradient)"></path></g></g><style>text {
  font-size: 64px;
  font-family: Arial Black;
  dominant-baseline: central;
  text-anchor: middle;
}</style></svg>