<svg width="132.340625px" height="242px" xmlns="http://www.w3.org/2000/svg" viewBox="183.8296875 -46 132.340625 242" style="background: rgba(0, 0, 0, 0);" preserveAspectRatio="xMidYMid"><defs><linearGradient id="editing-gradow-gradient" x1="0" x2="1" y1="0.5" y2="0.5" gradientUnits="objectBoundingBox"><stop offset="0" stop-color="#6600ff"></stop><stop offset="1" stop-color="#6600ff"></stop></linearGradient><filter id="editing-gradow-filter" x="-100%" y="-100%" width="300%" height="300%"><feFlood flood-color="#ffffff" result="flood"></feFlood><feComposite operator="in" in2="SourceAlpha" in="flood" result="shadow"></feComposite><feOffset dx="-4" dy="-4" in="SourceGraphic" result="offset-1"></feOffset><feOffset dx="4" dy="4" in="shadow" result="offset-2"></feOffset><feMerge><feMergeNode in="offset-2"></feMergeNode><feMergeNode in="offset-1"></feMergeNode></feMerge></filter></defs><g filter="url(#editing-gradow-filter)"><g transform="translate(208.84000274538994, 123.99999809265137)"><path d="M56.98-64.68L56.98-64.68L56.98-64.68Q59.08-68.88 59.08-72.80L59.08-72.80L59.08-72.80Q59.08-76.72 58.66-78.89L58.66-78.89L58.66-78.89Q58.24-81.06 57.26-82.74L57.26-82.74L57.26-82.74Q55.16-86.38 50.96-86.38L50.96-86.38L50.96-86.38Q45.78-86.38 41.58-82.60L41.58-82.60L41.58-82.60Q37.10-78.68 37.10-72.52L37.10-72.52L37.10-72.52Q37.10-68.60 39.83-65.59L39.83-65.59L39.83-65.59Q42.56-62.58 46.76-59.78L46.76-59.78L46.76-59.78Q50.96-56.98 55.72-54.18L55.72-54.18L55.72-54.18Q60.48-51.38 64.68-48.02L64.68-48.02L64.68-48.02Q74.34-40.32 74.34-29.96L74.34-29.96L74.34-29.96Q74.34-22.96 70.63-17.01L70.63-17.01L70.63-17.01Q66.92-11.06 60.76-6.72L60.76-6.72L60.76-6.72Q47.32 2.80 29.54 2.80L29.54 2.80L29.54 2.80Q15.12 2.80 7.70-1.89L7.70-1.89L7.70-1.89Q0.28-6.58 0.28-13.72L0.28-13.72L0.28-13.72Q0.28-26.46 10.22-29.68L10.22-29.68L10.22-29.68Q13.02-30.66 17.29-30.66L17.29-30.66L17.29-30.66Q21.56-30.66 26.46-28.84L26.46-28.84L26.46-28.84Q24.22-23.10 24.22-17.92L24.22-17.92L24.22-17.92Q24.22-6.72 32.20-6.72L32.20-6.72L32.20-6.72Q37.38-6.72 41.65-10.50L41.65-10.50L41.65-10.50Q45.92-14.28 45.92-18.55L45.92-18.55L45.92-18.55Q45.92-22.82 43.19-25.90L43.19-25.90L43.19-25.90Q40.46-28.98 36.40-31.43L36.40-31.43L36.40-31.43Q32.34-33.88 27.65-36.26L27.65-36.26L27.65-36.26Q22.96-38.64 18.90-42.00L18.90-42.00L18.90-42.00Q9.38-49.70 9.38-62.02L9.38-62.02L9.38-62.02Q9.38-70 13.30-76.23L13.30-76.23L13.30-76.23Q17.22-82.46 23.52-86.66L23.52-86.66L23.52-86.66Q36.12-95.20 51.59-95.20L51.59-95.20L51.59-95.20Q67.06-95.20 74.55-90.58L74.55-90.58L74.55-90.58Q82.04-85.96 82.04-78.12L82.04-78.12L82.04-78.12Q82.04-71.26 76.72-66.92L76.72-66.92L76.72-66.92Q72.10-63.28 66.50-63.28L66.50-63.28L66.50-63.28Q60.90-63.28 56.98-64.68Z" fill="url(#editing-gradow-gradient)"></path></g></g><style>text {
  font-size: 64px;
  font-family: Arial Black;
  dominant-baseline: central;
  text-anchor: middle;
}</style></svg>