<svg width="127.955615234375px" height="242px" xmlns="http://www.w3.org/2000/svg" viewBox="186.0221923828125 -46 127.955615234375 242" style="background: rgba(0, 0, 0, 0);" preserveAspectRatio="xMidYMid"><defs><linearGradient id="editing-gradow-gradient" x1="0" x2="1" y1="0.5" y2="0.5" gradientUnits="objectBoundingBox"><stop offset="0" stop-color="#6600ff"></stop><stop offset="1" stop-color="#6600ff"></stop></linearGradient><filter id="editing-gradow-filter" x="-100%" y="-100%" width="300%" height="300%"><feFlood flood-color="#ffffff" result="flood"></feFlood><feComposite operator="in" in2="SourceAlpha" in="flood" result="shadow"></feComposite><feOffset dx="-4" dy="-4" in="SourceGraphic" result="offset-1"></feOffset><feOffset dx="4" dy="4" in="shadow" result="offset-2"></feOffset><feMerge><feMergeNode in="offset-2"></feMergeNode><feMergeNode in="offset-1"></feMergeNode></feMerge></filter></defs><g filter="url(#editing-gradow-filter)"><g transform="translate(209.32694625854492, 124.14000129699707)"><path d="M13.58-68.18L13.58-68.18L13.58-68.18Q8.82-71.82 8.82-79.59L8.82-79.59L8.82-79.59Q8.82-87.36 13.93-91.42L13.93-91.42L13.93-91.42Q19.04-95.48 27.86-95.48L27.86-95.48L27.86-95.48Q33.46-95.48 46.76-93.52L46.76-93.52L56.28-92.12L56.28-92.12Q61.04-91.56 66.01-91.56L66.01-91.56L66.01-91.56Q70.98-91.56 74.34-93.66L74.34-93.66L74.34-93.66Q79.38-89.18 79.38-82.74L79.38-82.74L79.38-82.74Q79.38-76.30 73.64-71.68L73.64-71.68L73.64-71.68Q67.76-66.78 60.20-66.78L60.20-66.78L60.20-66.78Q56.56-66.78 50.68-67.76L50.68-67.76L50.68-67.76Q43.82-46.20 43.82-31.22L43.82-31.22L43.82-31.22Q43.82-16.24 51.38-8.40L51.38-8.40L51.38-8.40Q47.88-2.10 42.70 0.35L42.70 0.35L42.70 0.35Q37.52 2.80 29.75 2.80L29.75 2.80L29.75 2.80Q21.98 2.80 17.15-1.47L17.15-1.47L17.15-1.47Q12.32-5.74 12.32-14.56L12.32-14.56L12.32-14.56Q12.32-24.78 17.92-41.58L17.92-41.58L17.92-41.58Q23.52-58.24 31.92-70.98L31.92-70.98L31.92-70.98Q27.86-71.40 23.66-71.40L23.66-71.40L23.66-71.40Q14.98-71.40 13.58-68.18Z" fill="url(#editing-gradow-gradient)"></path></g></g><style>text {
  font-size: 64px;
  font-family: Arial Black;
  dominant-baseline: central;
  text-anchor: middle;
}</style></svg>