<svg width="147.378125px" height="242px" xmlns="http://www.w3.org/2000/svg" viewBox="176.3109375 -46 147.378125 242" style="background: rgba(0, 0, 0, 0);" preserveAspectRatio="xMidYMid"><defs><linearGradient id="editing-gradow-gradient" x1="0" x2="1" y1="0.5" y2="0.5" gradientUnits="objectBoundingBox"><stop offset="0" stop-color="#6600ff"></stop><stop offset="1" stop-color="#6600ff"></stop></linearGradient><filter id="editing-gradow-filter" x="-100%" y="-100%" width="300%" height="300%"><feFlood flood-color="#ffffff" result="flood"></feFlood><feComposite operator="in" in2="SourceAlpha" in="flood" result="shadow"></feComposite><feOffset dx="-4" dy="-4" in="SourceGraphic" result="offset-1"></feOffset><feOffset dx="4" dy="4" in="shadow" result="offset-2"></feOffset><feMerge><feMergeNode in="offset-2"></feMergeNode><feMergeNode in="offset-1"></feMergeNode></feMerge></filter></defs><g filter="url(#editing-gradow-filter)"><g transform="translate(200.8600091934204, 122.60000038146973)"><path d="M5.04-20.72L5.04-20.72L5.04-20.72Q5.04-26.18 6.44-33.18L6.44-33.18L17.78-92.40L48.72-92.40L37.52-32.76L37.52-32.76Q36.26-26.18 36.26-21.35L36.26-21.35L36.26-21.35Q36.26-16.52 38.29-14.00L38.29-14.00L38.29-14.00Q40.32-11.48 44.10-11.48L44.10-11.48L44.10-11.48Q47.88-11.48 50.26-12.46L50.26-12.46L50.26-12.46Q52.64-13.44 54.60-15.82L54.60-15.82L54.60-15.82Q58.38-20.58 60.76-32.76L60.76-32.76L72.10-92.40L93.24-92.40L82.04-32.90L82.04-32.90Q78.12-13.02 67.34-5.04L67.34-5.04L67.34-5.04Q56.84 2.80 36.12 2.80L36.12 2.80L36.12 2.80Q20.58 2.80 12.32-3.92L12.32-3.92L12.32-3.92Q5.04-9.80 5.04-20.72Z" fill="url(#editing-gradow-gradient)"></path></g></g><style>text {
  font-size: 64px;
  font-family: Arial Black;
  dominant-baseline: central;
  text-anchor: middle;
}</style></svg>