<svg width="147.3762939453125px" height="242px" xmlns="http://www.w3.org/2000/svg" viewBox="176.31185302734374 -46 147.3762939453125 242" style="background: rgba(0, 0, 0, 0);" preserveAspectRatio="xMidYMid"><defs><linearGradient id="editing-gradow-gradient" x1="0" x2="1" y1="0.5" y2="0.5" gradientUnits="objectBoundingBox"><stop offset="0" stop-color="#6600ff"></stop><stop offset="1" stop-color="#6600ff"></stop></linearGradient><filter id="editing-gradow-filter" x="-100%" y="-100%" width="300%" height="300%"><feFlood flood-color="#ffffff" result="flood"></feFlood><feComposite operator="in" in2="SourceAlpha" in="flood" result="shadow"></feComposite><feOffset dx="-4" dy="-4" in="SourceGraphic" result="offset-1"></feOffset><feOffset dx="4" dy="4" in="shadow" result="offset-2"></feOffset><feMerge><feMergeNode in="offset-2"></feMergeNode><feMergeNode in="offset-1"></feMergeNode></feMerge></filter></defs><g filter="url(#editing-gradow-filter)"><g transform="translate(204.21714115142822, 122.59999656677246)"><path d="M5.88-86.80L5.88-86.80L5.88-86.80Q9.94-95.20 21.21-95.20L21.21-95.20L21.21-95.20Q32.48-95.20 37.73-88.69L37.73-88.69L37.73-88.69Q42.98-82.18 42.98-67.20L42.98-67.20L42.98-17.22L77.00-92.26L93.66-92.26L50.12 0L17.36 0L13.16-67.20L13.16-67.20Q12.74-74.62 10.71-79.66L10.71-79.66L10.71-79.66Q8.68-84.70 5.88-86.80Z" fill="url(#editing-gradow-gradient)"></path></g></g><style>text {
  font-size: 64px;
  font-family: Arial Black;
  dominant-baseline: central;
  text-anchor: middle;
}</style></svg>