<svg width="219.91791992187498px" height="242px" xmlns="http://www.w3.org/2000/svg" viewBox="140.04104003906252 -46 219.91791992187498 242" style="background: rgba(0, 0, 0, 0);" preserveAspectRatio="xMidYMid"><defs><linearGradient id="editing-gradow-gradient" x1="0" x2="1" y1="0.5" y2="0.5" gradientUnits="objectBoundingBox"><stop offset="0" stop-color="#6600ff"></stop><stop offset="1" stop-color="#6600ff"></stop></linearGradient><filter id="editing-gradow-filter" x="-100%" y="-100%" width="300%" height="300%"><feFlood flood-color="#ffffff" result="flood"></feFlood><feComposite operator="in" in2="SourceAlpha" in="flood" result="shadow"></feComposite><feOffset dx="-4" dy="-4" in="SourceGraphic" result="offset-1"></feOffset><feOffset dx="4" dy="4" in="shadow" result="offset-2"></feOffset><feMerge><feMergeNode in="offset-2"></feMergeNode><feMergeNode in="offset-1"></feMergeNode></feMerge></filter></defs><g filter="url(#editing-gradow-filter)"><g transform="translate(177.75661182403564, 122.52999687194824)"><path d="M5.88-86.80L5.88-86.80L5.88-86.80Q7.84-90.72 12.11-92.89L12.11-92.89L12.11-92.89Q16.38-95.06 22.26-95.06L22.26-95.06L22.26-95.06Q31.50-95.06 37.03-88.41L37.03-88.41L37.03-88.41Q42.56-81.76 42.56-67.20L42.56-67.20L42.56-17.22L74.62-92.26L91.14-92.26L94.92-21.42L94.50-17.36L127.82-92.26L147-92.26L102.20 0L72.38 0L69.58-42.56L51.10 0L17.36 0L13.16-67.20L13.16-67.20Q12.74-74.76 10.71-79.73L10.71-79.73L10.71-79.73Q8.68-84.70 5.88-86.80Z" fill="url(#editing-gradow-gradient)"></path></g></g><style>text {
  font-size: 64px;
  font-family: Arial Black;
  dominant-baseline: central;
  text-anchor: middle;
}</style></svg>