<svg width="150.9938720703125px" height="242px" xmlns="http://www.w3.org/2000/svg" viewBox="174.50306396484376 -46 150.9938720703125 242" style="background: rgba(0, 0, 0, 0);" preserveAspectRatio="xMidYMid"><defs><linearGradient id="editing-gradow-gradient" x1="0" x2="1" y1="0.5" y2="0.5" gradientUnits="objectBoundingBox"><stop offset="0" stop-color="#6600ff"></stop><stop offset="1" stop-color="#6600ff"></stop></linearGradient><filter id="editing-gradow-filter" x="-100%" y="-100%" width="300%" height="300%"><feFlood flood-color="#ffffff" result="flood"></feFlood><feComposite operator="in" in2="SourceAlpha" in="flood" result="shadow"></feComposite><feOffset dx="-4" dy="-4" in="SourceGraphic" result="offset-1"></feOffset><feOffset dx="4" dy="4" in="shadow" result="offset-2"></feOffset><feMerge><feMergeNode in="offset-2"></feMergeNode><feMergeNode in="offset-1"></feMergeNode></feMerge></filter></defs><g filter="url(#editing-gradow-filter)"><g transform="translate(207.64661741256714, 123.85999870300293)"><path d="M6.72-87.22L6.72-87.22L6.72-87.22Q13.30-94.92 24.22-94.92L24.22-94.92L24.22-94.92Q32.90-94.92 37.52-91.56L37.52-91.56L37.52-91.56Q42.14-88.06 45.22-79.52L45.22-79.52L51.10-62.86L72.24-92.26L91.14-92.26L56.84-46.76L65.66-21.84L65.66-21.84Q67.62-16.24 71.05-12.11L71.05-12.11L71.05-12.11Q74.48-7.98 77.56-7.28L77.56-7.28L77.56-7.28Q74.76-1.96 69.93 0.42L69.93 0.42L69.93 0.42Q65.10 2.80 58.03 2.80L58.03 2.80L58.03 2.80Q50.96 2.80 45.99-1.82L45.99-1.82L45.99-1.82Q41.02-6.44 37.24-16.80L37.24-16.80L33.18-28.00L12.04 0L-5.18 0L27.02-44.66L16.94-72.80L16.94-72.80Q14.70-78.96 12.46-82.11L12.46-82.11L12.46-82.11Q10.22-85.26 6.72-87.22Z" fill="url(#editing-gradow-gradient)"></path></g></g><style>text {
  font-size: 64px;
  font-family: Arial Black;
  dominant-baseline: central;
  text-anchor: middle;
}</style></svg>