<svg width="146.9955078125px" height="242px" xmlns="http://www.w3.org/2000/svg" viewBox="176.50224609375 -46 146.9955078125 242" style="background: rgba(0, 0, 0, 0);" preserveAspectRatio="xMidYMid"><defs><linearGradient id="editing-gradow-gradient" x1="0" x2="1" y1="0.5" y2="0.5" gradientUnits="objectBoundingBox"><stop offset="0" stop-color="#6600ff"></stop><stop offset="1" stop-color="#6600ff"></stop></linearGradient><filter id="editing-gradow-filter" x="-100%" y="-100%" width="300%" height="300%"><feFlood flood-color="#ffffff" result="flood"></feFlood><feComposite operator="in" in2="SourceAlpha" in="flood" result="shadow"></feComposite><feOffset dx="-4" dy="-4" in="SourceGraphic" result="offset-1"></feOffset><feOffset dx="4" dy="4" in="shadow" result="offset-2"></feOffset><feMerge><feMergeNode in="offset-2"></feMergeNode><feMergeNode in="offset-1"></feMergeNode></feMerge></filter></defs><g filter="url(#editing-gradow-filter)"><g transform="translate(205.5473279953003, 122.45999717712402)"><path d="M15.68 0L23.80-41.16L23.80-41.16Q19.74-79.10 5.46-87.22L5.46-87.22L5.46-87.22Q8.40-90.86 13.16-92.89L13.16-92.89L13.16-92.89Q17.92-94.92 23.66-94.92L23.66-94.92L23.66-94.92Q29.40-94.92 33.74-92.89L33.74-92.89L33.74-92.89Q38.08-90.86 40.88-86.52L40.88-86.52L40.88-86.52Q46.20-78.26 46.20-58.52L46.20-58.52L46.20-48.44L46.20-48.44Q54.60-73.08 63.00-83.72L63.00-83.72L63.00-83.72Q71.54-94.64 82.18-94.64L82.18-94.64L82.18-94.64Q86.38-94.64 89.18-92.47L89.18-92.47L89.18-92.47Q91.98-90.30 93.38-87.08L93.38-87.08L93.38-87.08Q82.60-82.32 72.24-68.60L72.24-68.60L72.24-68.60Q61.88-54.88 55.16-35.70L55.16-35.70L46.90 0L15.68 0Z" fill="url(#editing-gradow-gradient)"></path></g></g><style>text {
  font-size: 64px;
  font-family: Arial Black;
  dominant-baseline: central;
  text-anchor: middle;
}</style></svg>