<svg width="129.865625px" height="242px" xmlns="http://www.w3.org/2000/svg" viewBox="185.0671875 -46 129.865625 242" style="background: rgba(0, 0, 0, 0);" preserveAspectRatio="xMidYMid"><defs><linearGradient id="editing-gradow-gradient" x1="0" x2="1" y1="0.5" y2="0.5" gradientUnits="objectBoundingBox"><stop offset="0" stop-color="#6600ff"></stop><stop offset="1" stop-color="#6600ff"></stop></linearGradient><filter id="editing-gradow-filter" x="-100%" y="-100%" width="300%" height="300%"><feFlood flood-color="#ffffff" result="flood"></feFlood><feComposite operator="in" in2="SourceAlpha" in="flood" result="shadow"></feComposite><feOffset dx="-4" dy="-4" in="SourceGraphic" result="offset-1"></feOffset><feOffset dx="4" dy="4" in="shadow" result="offset-2"></feOffset><feMerge><feMergeNode in="offset-2"></feMergeNode><feMergeNode in="offset-1"></feMergeNode></feMerge></filter></defs><g filter="url(#editing-gradow-filter)"><g transform="translate(209.47000133991241, 122.73999977111816)"><path d="M31.99 0.35L31.99 0.35L31.99 0.35Q24.50-0.98 20.58-1.54L20.58-1.54L20.58-1.54Q16.66-2.10 12.53-2.10L12.53-2.10L12.53-2.10Q8.40-2.10 6.30 0L6.30 0L6.30 0Q3.08-2.38 1.40-9.94L1.40-9.94L1.40-9.94Q0.84-12.04 0.84-15.54L0.84-15.54L0.84-15.54Q0.84-23.10 9.52-30.52L9.52-30.52L53.20-66.36L53.20-66.36Q35.14-69.30 27.86-69.30L27.86-69.30L27.86-69.30Q20.58-69.30 13.86-66.08L13.86-66.08L13.86-66.08Q10.08-72.24 10.08-79.38L10.08-79.38L10.08-79.38Q10.08-86.52 15.33-90.16L15.33-90.16L15.33-90.16Q20.58-93.80 29.40-93.80L29.40-93.80L29.40-93.80Q33.32-93.80 37.52-93.24L37.52-93.24L37.52-93.24Q41.72-92.68 45.92-92.12L45.92-92.12L54.18-90.86L54.18-90.86Q58.24-90.30 63.49-90.30L63.49-90.30L63.49-90.30Q68.74-90.30 74.62-91.70L74.62-91.70L74.62-91.70Q80.22-86.80 80.22-78.68L80.22-78.68L80.22-78.68Q80.22-68.88 73.50-63.56L73.50-63.56L25.90-25.48L25.90-25.48Q36.12-22.68 53.06-22.68L53.06-22.68L53.06-22.68Q61.46-22.68 66.78-26.88L66.78-26.88L66.78-26.88Q69.16-23.80 69.79-21.21L69.79-21.21L69.79-21.21Q70.42-18.62 70.42-14.91L70.42-14.91L70.42-14.91Q70.42-11.20 69.16-8.19L69.16-8.19L69.16-8.19Q67.90-5.18 65.24-2.94L65.24-2.94L65.24-2.94Q59.92 1.68 48.16 1.68L48.16 1.68L48.16 1.68Q39.48 1.68 31.99 0.35Z" fill="url(#editing-gradow-gradient)"></path></g></g><style>text {
  font-size: 64px;
  font-family: Arial Black;
  dominant-baseline: central;
  text-anchor: middle;
}</style></svg>